<svg width="29" height="29" viewBox="0 0 29 29" fill="none" xmlns="http://www.w3.org/2000/svg">
<path d="M22.9944 3.39548C16.817 -1.23371 8.02472 0.0259447 3.39553 6.20339C-1.23366 12.3808 0.0259974 21.1731 6.20344 25.8023C12.3809 30.4314 21.1731 29.1718 25.8023 22.9944C30.4315 16.8169 29.1718 8.02467 22.9944 3.39548ZM7.25288 24.4018C1.84742 20.3511 0.74527 12.6583 4.79596 7.25282C8.84665 1.84736 16.5395 0.745216 21.945 4.7959C27.3504 8.84659 28.4526 16.5395 24.4019 21.9449C20.3512 27.3504 12.6583 28.4525 7.25288 24.4018ZM19.4907 16.3982C19.5593 16.8768 19.2273 17.3199 18.7488 17.3883C18.5096 17.4225 18.2791 17.3567 18.1 17.2225C17.9209 17.0883 17.7929 16.8855 17.7587 16.6463L17.1808 12.6126L12.1508 19.3249C11.8608 19.7119 11.3126 19.7901 10.9259 19.5004C10.5392 19.2106 10.4604 18.6625 10.7504 18.2754L15.7803 11.5632L11.7467 12.1411C11.268 12.2097 10.825 11.8777 10.7566 11.3991C10.6882 10.9206 11.02 10.4774 11.4985 10.409L17.6232 9.53157C18.1018 9.463 18.5449 9.79502 18.6133 10.2735L19.4907 16.3982Z" fill="#F02F1D"/>
</svg>
