<svg width="40" height="26" viewBox="0 0 40 26" fill="none" xmlns="http://www.w3.org/2000/svg">
<path d="M0.950494 2.83218H39.0495C39.604 2.83218 40 2.28903 40 1.74589C40 1.20275 39.6832 0.569092 39.1287 0.569092H0.950494C0.396039 0.569092 0 1.11223 0 1.65537C0 2.19851 0.396039 2.83218 0.950494 2.83218Z" fill="white"/>
<path d="M39.1287 12.0657H0.950494C0.396039 12.0657 0 12.6088 0 13.152C0 13.6951 0.475247 14.2382 0.950494 14.2382H39.0495C39.604 14.2382 40 13.6951 40 13.152C40 12.6088 39.6832 12.0657 39.1287 12.0657Z" fill="white"/>
<path d="M39.1287 23.6528H0.950494C0.396039 23.6528 0 24.196 0 24.7391C0 25.2823 0.475247 25.8254 0.950494 25.8254H39.0495C39.604 25.8254 40 25.2823 40 24.7391C40 24.196 39.6832 23.6528 39.1287 23.6528Z" fill="white"/>
</svg>
